<svg xmlns="http://www.w3.org/2000/svg" xmlns:xlink="http://www.w3.org/1999/xlink" width="792" height="583.04"><rect width="792" height="583.04" rx="5" ry="5" class="a"/><svg y="0%" x="0%"><circle cx="20" cy="20" r="6" fill="#ff5f58"/><circle cx="40" cy="20" r="6" fill="#ffbd2e"/><circle cx="60" cy="20" r="6" fill="#18c132"/></svg><svg height="521.04" viewBox="0 0 75 52.104" width="750" x="16" xmlns="http://www.w3.org/2000/svg" xmlns:xlink="http://www.w3.org/1999/xlink" y="51"><style>@keyframes h{0%{transform:translateX(0)}50.6%{transform:translateX(-75px)}62.4%{transform:translateX(-150px)}to{transform:translateX(-225px)}}.a{fill:#282d35}.j{fill:#b9c0cb;white-space:pre}</style><g font-family="Monaco,Consolas,Menlo,'Bitstream Vera Sans Mono','Powerline Symbols',monospace" font-size="1.67"><defs><symbol id="a"><path fill="transparent" d="M0 0h75v25H0z"/></symbol><symbol id="b"><path fill="#6f7683" d="M0 0h1.102v2.171H0z"/></symbol></defs><path class="a" d="M0 0h75v52.104H0z"/><g style="animation-duration:.074555s;animation-iteration-count:infinite;animation-name:h;animation-timing-function:steps(1,end)"><svg width="300"><svg><use xlink:href="#a"/><use xlink:href="#b" x="-.004"/></svg><svg x="75"><use xlink:href="#a"/><use xlink:href="#b" x="-.004" y="8.659"/><text y="1.67" class="j">/home/tin/lab/cuitonlinelib/demo/usage.tutorial:</text><text x="49.098" y="1.67" class="j">line</text><text x="54.108" y="1.67" class="j">19:</text><text x="58.116" y="1.67" class="j">syntax</text><text x="65.13" y="1.67" class="j">error</text><text x="71.142" y="1.67" class="j">near</text><text x="1.002" y="3.841" class="j">unexpected</text><text x="12.024" y="3.841" class="j">token</text><text x="18.036" y="3.841" class="j">`(&apos;</text><text y="6.012" class="j">/home/tin/lab/cuitonlinelib/demo/usage.tutorial:</text><text x="49.098" y="6.012" class="j">line</text><text x="54.108" y="6.012" class="j">19:</text><text x="58.116" y="6.012" class="j">`</text><text x="61.122" y="6.012" class="j">c</text><text x="63.126" y="6.012" class="j">cuitonline</text><text x="74.148" y="6.012" class="j">\</text><text y="8.183" class="j">&quot;messi</text><text x="7.014" y="8.183" class="j">lionel\&quot;</text><text x="16.032" y="8.183" class="j">|</text><text x="18.036" y="8.183" class="j">jq</text><text x="21.042" y="8.183" class="j">\&apos;.[]</text><text x="27.054" y="8.183" class="j">|</text><text x="29.058" y="8.183" class="j">select(.localidad</text><text x="47.094" y="8.183" class="j">|</text><text x="49.098" y="8.183" class="j">contains(\&quot;Rosario\&quot;))\&apos;&apos;</text></svg><svg x="150"><use xlink:href="#a"/><use xlink:href="#b" x="-.004"/></svg><svg x="225"><use xlink:href="#a"/><use xlink:href="#b" x="-.004" y="2.146"/><text y="1.67" class="j">/usr/local/bin/tuterm:</text><text x="23.046" y="1.67" class="j">line</text><text x="28.056" y="1.67" class="j">572:</text><text x="33.066" y="1.67" class="j">run:</text><text x="38.076" y="1.67" class="j">command</text><text x="46.092" y="1.67" class="j">not</text><text x="50.1" y="1.67" class="j">found</text></svg></svg></g></g></svg></svg>